<svg width="74" height="74" viewBox="0 0 74 74" fill="none" xmlns="http://www.w3.org/2000/svg">
<g id="211661_eye_icon 1">
<g id="Group">
<path id="Vector" d="M37 18.5C25.1629 18.5 15.9418 25.5531 4.625 37C14.3664 46.7848 22.5469 55.5 37 55.5C51.4387 55.5 62.0617 44.4578 69.375 37.2023C61.8883 28.7039 51.2797 18.5 37 18.5ZM37 50.1957C29.8602 50.1957 24.05 44.2699 24.05 37C24.05 29.7156 29.8602 23.8043 37 23.8043C44.1398 23.8043 49.95 29.7301 49.95 37C49.95 44.2844 44.1398 50.1957 37 50.1957Z" fill="url(#paint0_linear_15_4905)"/>
<g id="Group_2">
<path id="Vector_2" d="M36.9999 32.3749C36.9999 31.2331 37.419 30.1925 38.0983 29.3831C37.737 29.3253 37.3757 29.2964 36.9999 29.2964C32.8374 29.2964 29.4409 32.7507 29.4409 36.9999C29.4409 41.2491 32.8374 44.7034 36.9999 44.7034C41.1624 44.7034 44.5589 41.2491 44.5589 36.9999C44.5589 36.6675 44.53 36.3351 44.5011 36.0026C43.7062 36.6241 42.7233 36.9999 41.6394 36.9999C39.0667 36.9999 36.9999 34.9331 36.9999 32.3749Z" fill="url(#paint1_linear_15_4905)"/>
</g>
</g>
</g>
<defs>
<linearGradient id="paint0_linear_15_4905" x1="37" y1="18.5" x2="37" y2="55.5" gradientUnits="userSpaceOnUse">
<stop stop-color="#D59570"/>
<stop offset="1" stop-color="#6F4E3A"/>
</linearGradient>
<linearGradient id="paint1_linear_15_4905" x1="36.9999" y1="29.2964" x2="36.9999" y2="44.7034" gradientUnits="userSpaceOnUse">
<stop stop-color="#D59570"/>
<stop offset="1" stop-color="#6F4E3A"/>
</linearGradient>
</defs>
</svg>
