<svg width="53" height="21" viewBox="0 0 53 21" fill="none" xmlns="http://www.w3.org/2000/svg">
<g id="delGroup_logo 1" clip-path="url(#clip0_15_3701)">
<path id="Vector" d="M2.27051 5.04186V11.361H3.39373C4.38056 11.361 5.15077 11.0677 5.71238 10.4889C6.27399 9.90217 6.5548 9.10927 6.5548 8.10232C6.5548 7.15089 6.27399 6.40559 5.7204 5.85851C5.16682 5.31144 4.38858 5.04186 3.37768 5.04186H2.27051ZM0 13.1846V3.21826H3.57024C7.15652 3.21826 8.94564 4.83571 8.94564 8.07855C8.94564 9.63255 8.45623 10.8694 7.47744 11.7971C6.49863 12.7248 5.19891 13.1846 3.57024 13.1846H0Z" fill="white"/>
<path id="Vector_2" d="M14.5294 8.90393C14.5294 7.88108 14.1122 7.37367 13.2778 7.37367C12.9248 7.37367 12.6119 7.51635 12.3552 7.80975C12.0984 8.10308 11.9379 8.4678 11.8818 8.90393H14.5294ZM16.5833 10.2518H11.8818C11.954 11.2825 12.6119 11.8058 13.8555 11.8058C14.6497 11.8058 15.3477 11.6234 15.9415 11.2508V12.8366C15.2756 13.1854 14.409 13.3678 13.342 13.3678C12.1786 13.3678 11.28 13.0506 10.6302 12.4084C9.98836 11.7741 9.66748 10.8861 9.66748 9.74438C9.66748 8.56298 10.0124 7.62735 10.7104 6.93759C11.4004 6.24779 12.2589 5.89893 13.2697 5.89893C14.3208 5.89893 15.1311 6.20815 15.7088 6.82659C16.2864 7.44502 16.5672 8.27753 16.5672 9.33998V10.2518H16.5833Z" fill="white"/>
<path id="Vector_3" d="M19.841 13.1857H17.6187V2.64844H19.841V13.1857Z" fill="white"/>
<path id="Vector_4" d="M23.6518 13.1847H21.4295V6.06475H23.6518V13.1847ZM22.5527 4.93887C22.1756 4.93887 21.8707 4.82787 21.63 4.60587C21.3894 4.38387 21.269 4.11429 21.269 3.79714C21.269 3.47207 21.3894 3.20249 21.63 2.98842C21.8707 2.78227 22.1756 2.6792 22.5527 2.6792C22.9298 2.6792 23.2427 2.78227 23.4754 2.98842C23.7161 3.19456 23.8283 3.46413 23.8283 3.79714C23.8283 4.13015 23.708 4.40765 23.4754 4.61379C23.2427 4.8358 22.9298 4.93887 22.5527 4.93887Z" fill="white"/>
<path id="Vector_5" d="M32.0919 6.06592L29.4122 13.1859H26.877L24.3257 6.06592H26.7005L27.9521 10.4505C28.0965 10.95 28.1767 11.3702 28.2007 11.7191H28.2328C28.2649 11.394 28.3532 10.9817 28.4896 10.4981L29.7733 6.07385H32.0919V6.06592Z" fill="white"/>
<path id="Vector_6" d="M37.0263 8.90393C37.0263 7.88108 36.6091 7.37367 35.7747 7.37367C35.4216 7.37367 35.1088 7.51635 34.852 7.80975C34.5953 8.10308 34.4349 8.4678 34.3787 8.90393H37.0263ZM39.0882 10.2518H34.3867C34.4589 11.2825 35.1168 11.8058 36.3603 11.8058C37.1547 11.8058 37.8527 11.6234 38.4464 11.2508V12.8366C37.7804 13.1854 36.914 13.3678 35.8469 13.3678C34.6836 13.3678 33.785 13.0506 33.1351 12.4084C32.4933 11.7741 32.1724 10.8861 32.1724 9.74438C32.1724 8.56298 32.5173 7.62735 33.2153 6.93759C33.9053 6.24779 34.7638 5.89893 35.7747 5.89893C36.8257 5.89893 37.6361 6.20815 38.2137 6.82659C38.7913 7.44502 39.0721 8.27753 39.0721 9.33998V10.2518H39.0882Z" fill="white"/>
<path id="Vector_7" d="M44.8162 8.0484C44.5515 7.90567 44.2386 7.83427 43.8776 7.83427C43.3962 7.83427 43.0191 8.00872 42.7463 8.35762C42.4735 8.70645 42.3371 9.18217 42.3371 9.78472V13.1861H40.1147V6.06619H42.3371V7.39029H42.3692C42.7223 6.42298 43.3561 5.94727 44.2707 5.94727C44.5034 5.94727 44.6879 5.97105 44.8162 6.03448V8.0484Z" fill="white"/>
<path id="Vector_8" d="M52.9999 6.06592L50.0715 13.7567C49.3654 15.6041 48.3064 16.5318 46.8944 16.5318C46.3569 16.5318 45.9156 16.4684 45.5625 16.3494V14.5972C45.8594 14.7716 46.1804 14.8509 46.5253 14.8509C47.095 14.8509 47.4961 14.5814 47.7208 14.0501L48.0978 13.17L45.1694 6.06592H47.6325L48.9723 10.395C49.0606 10.6646 49.1248 10.9817 49.1729 11.3465H49.205C49.2451 11.0768 49.3254 10.7676 49.4377 10.4108L50.7936 6.06592H52.9999Z" fill="white"/>
<path id="Vector_9" d="M10.2616 20.0122C9.692 20.3293 9.10627 20.4879 8.50457 20.4879C7.75038 20.4879 7.14869 20.2342 6.68335 19.7347C6.21802 19.2272 5.98535 18.5692 5.98535 17.7525C5.98535 16.9279 6.23407 16.2381 6.73951 15.6831C7.23694 15.1281 7.9109 14.8506 8.74527 14.8506C9.22666 14.8506 9.70002 14.9457 10.1573 15.136V15.5483C9.6599 15.3104 9.17048 15.1915 8.68909 15.1915C7.99108 15.1915 7.43751 15.4294 7.01229 15.8971C6.58708 16.365 6.37848 16.9675 6.37848 17.689C6.37848 18.4582 6.57905 19.0528 6.97218 19.4889C7.36531 19.9249 7.90287 20.139 8.5768 20.139C9.07424 20.139 9.50748 20.0359 9.88454 19.8219V18.022H8.58483V17.6811H10.2696V20.0122H10.2616Z" fill="white"/>
<path id="Vector_10" d="M11.7616 15.2859V17.6169H12.7083C13.1255 17.6169 13.4625 17.5059 13.7112 17.2919C13.9599 17.0777 14.0802 16.7765 14.0802 16.3959C14.0802 16.047 13.9679 15.7775 13.7433 15.5792C13.5186 15.381 13.1977 15.2859 12.7885 15.2859H11.7616ZM14.2006 20.392L13.4625 18.7983C13.3101 18.4653 13.1576 18.2512 13.0052 18.1323C12.8527 18.0213 12.6602 17.9658 12.4356 17.9658H11.7536V20.392H11.3765V14.937H12.9088C13.3983 14.937 13.7754 15.0639 14.0561 15.3255C14.337 15.5872 14.4734 15.9281 14.4734 16.3562C14.4734 16.7527 14.361 17.0777 14.1284 17.3394C13.9037 17.6011 13.5828 17.7755 13.1736 17.8469V17.8627C13.3902 17.9499 13.6069 18.2116 13.8154 18.6476L14.6338 20.384H14.2006V20.392Z" fill="white"/>
<path id="Vector_11" d="M17.9076 15.1922C17.2657 15.1922 16.7362 15.422 16.3271 15.8819C15.9098 16.3418 15.7092 16.9444 15.7092 17.6817C15.7092 18.4349 15.9019 19.0296 16.295 19.4736C16.6881 19.9176 17.2096 20.1396 17.8675 20.1396C18.5494 20.1396 19.0869 19.9176 19.4881 19.4816C19.8893 19.0455 20.0818 18.4271 20.0818 17.6421C20.0818 16.873 19.8893 16.2704 19.4961 15.8344C19.103 15.4062 18.5735 15.1922 17.9076 15.1922ZM17.8675 20.4885C17.0892 20.4885 16.4634 20.2348 16.0061 19.7194C15.5408 19.2041 15.3081 18.546 15.3081 17.7214C15.3081 16.8492 15.5488 16.1594 16.0222 15.6282C16.4955 15.1049 17.1454 14.8433 17.9717 14.8433C18.7179 14.8433 19.3196 15.097 19.7769 15.5965C20.2342 16.096 20.4669 16.762 20.4669 17.5787C20.4669 18.4826 20.2342 19.1882 19.7609 19.7115C19.2875 20.2348 18.6537 20.4885 17.8675 20.4885Z" fill="white"/>
<path id="Vector_12" d="M25.1924 18.2124C25.1924 19.7268 24.5425 20.488 23.2267 20.488C21.9832 20.488 21.3574 19.7586 21.3574 18.2997V14.9458H21.7345V18.2521C21.7345 19.5207 22.256 20.1471 23.299 20.1471C24.3098 20.1471 24.8073 19.5286 24.8073 18.2997V14.9458H25.1844V18.2124H25.1924Z" fill="white"/>
<path id="Vector_13" d="M26.7648 15.2868V17.8636H27.551C28.0484 17.8636 28.4255 17.7447 28.6822 17.5147C28.939 17.2769 29.0674 16.9518 29.0674 16.5237C29.0674 15.707 28.594 15.2947 27.6393 15.2947H26.7648V15.2868ZM26.7648 18.2124V20.4008H26.3877V14.9458H27.7195C28.2891 14.9458 28.7223 15.0727 29.0192 15.3343C29.3161 15.596 29.4685 15.9765 29.4685 16.4761C29.4685 16.9835 29.3 17.3958 28.963 17.7288C28.6261 18.0539 28.1608 18.2204 27.559 18.2204H26.7648V18.2124Z" fill="white"/>
<path id="Vector_14" d="M33.5361 4.7255H29.7573L31.7871 2.36275L29.7573 0H33.5361L35.566 2.36275L33.5361 4.7255Z" fill="#FDCE00"/>
<path id="Vector_15" d="M39.3447 4.7255H35.5659L37.5957 2.36275L35.5659 0H39.3447L41.3746 2.36275L39.3447 4.7255Z" fill="#B2B2B3"/>
<path id="Vector_16" d="M45.1614 4.7255H41.3745L43.4043 2.36275L41.3745 0H45.1614L47.1912 2.36275L45.1614 4.7255Z" fill="#3F53A1"/>
<path id="Vector_17" d="M50.9702 4.7255H47.1914L49.2212 2.36275L47.1914 0H50.9702L53.0001 2.36275L50.9702 4.7255Z" fill="#95B51F"/>
</g>
<defs>
<clipPath id="clip0_15_3701">
<rect width="53" height="21" fill="white"/>
</clipPath>
</defs>
</svg>
